# xmcd
#
# Track frame offsets: 
#        150
#        22150
#        38127
#        57850
#        81902
#        102292
#        119392
#        134180
#        155327
#        174605
#        195155
#
# Disc length: 2961 seconds
#
# Revision: 3
# Processed by: cddbd v1.5.2PL0 Copyright (c) Steve Scherf et al.
# Submitted via: ExactAudioCopy v0.99pb5
#
DISCID=930b8f0b
DTITLE=Steve Wynn - Dazzling Display
DYEAR=1992
DGENRE=Rock
TTITLE0=Drag
TTITLE1=Tuesday
TTITLE2=When She Comes Around
TTITLE3=A Dazzling Display
TTITLE4=Halo
TTITLE5=Dandy in Disguise
TTITLE6=Grace
TTITLE7=As It Should Be
TTITLE8=Bonnie and Clyde
TTITLE9=405
TTITLE10=Close Your Eyes
EXTD=
EXTT0=
EXTT1=
EXTT2=
EXTT3=
EXTT4=
EXTT5=
EXTT6=
EXTT7=
EXTT8=
EXTT9=
EXTT10=
PLAYORDER=
